<svg width="214" height="28" viewBox="0 0 214 28" fill="none" xmlns="http://www.w3.org/2000/svg">
<path d="M147.233 1.63866C150.246 1.61987 152.973 2.23161 154.933 4.69988C156.22 6.32313 156.688 8.2019 155.963 10.2245C155.392 11.8187 153.462 12.7632 151.84 12.3039C151.078 12.0879 150.658 11.5157 150.502 10.7788C150.385 10.2252 150.333 9.64715 150.326 9.07981C150.318 8.30685 150.128 7.66942 149.358 7.33853C148.542 6.98712 147.765 7.11859 147.145 7.71513C146.745 8.09905 146.384 8.58774 146.18 9.09846C145.035 11.98 144.782 14.9611 145.545 17.9677C146.063 20.0058 147.717 20.9001 149.409 20.2024C149.692 20.0859 149.968 19.9169 150.2 19.7164C150.697 19.2897 151.041 18.7701 150.837 18.0709C150.626 17.3492 150.03 17.2728 149.404 17.2642C147.328 17.2351 147.03 15.54 147.736 14.2303C148.105 13.5449 148.703 13.1995 149.473 13.1789C150.186 13.16 150.901 13.1751 151.615 13.1751L151.618 13.1764C152.274 13.1764 152.931 13.1686 153.589 13.1789C155.078 13.2013 156.211 13.9463 156.425 15.3912C156.976 19.1041 156.596 22.6555 153.718 25.4325C151.053 28.0036 147.809 28.5662 144.372 27.4658C141.081 26.4133 139.165 24.0134 138.651 20.5765C138.005 16.2706 138.191 11.9987 139.344 7.79218C140.191 4.70503 142.996 1.66608 147.233 1.63866ZM124.54 3.37621C127.482 0.513595 131.412 0.959812 133.6 4.42396C134.856 6.41409 135.323 8.67496 135.731 10.9342C136.523 15.3174 137.232 19.7163 137.98 24.1063C138.261 25.7536 137.282 27.1436 135.417 27.5019C134.567 27.6646 133.641 27.6612 132.788 27.5155C131.261 27.2567 130.271 25.9918 130.095 24.2965C130.014 23.5319 129.959 22.7638 129.911 21.9959C129.822 20.5663 129.299 19.9441 128.101 19.8618C126.516 19.7522 125.866 20.2218 125.604 21.7299C125.414 22.8201 125.359 23.9398 125.098 25.0111C124.452 27.6783 120.756 28.7923 118.679 26.9687C117.863 26.2522 117.711 25.2687 117.61 24.2095L117.609 24.2107C117.939 22.6904 118.271 21.1701 118.602 19.6481C119.291 16.4648 119.87 13.2532 120.7 10.1077C121.372 7.56238 122.61 5.2548 124.54 3.37621ZM176.24 1.59888C179.174 1.15835 182.293 1.96564 183.801 4.42024C184.955 6.29726 185.072 8.36182 184.501 10.4308C184.105 11.8672 182.999 12.6858 181.555 12.9738C179.908 13.3028 178.766 12.3672 178.6 10.6222C178.554 10.1406 178.485 9.66008 178.446 9.17676C178.38 8.344 177.988 7.75926 177.153 7.58959C176.379 7.43216 175.648 7.7363 175.321 8.38753C174.793 9.43478 174.311 10.5529 174.087 11.6961C173.773 13.2952 173.888 14.9341 174.485 16.4887C175.302 18.6241 176.867 19.2054 178.907 18.179C179.664 17.7967 180.419 17.3795 181.22 17.1138C183.138 16.4763 184.566 17.5428 184.602 19.5723C184.665 23.3141 182.451 26.4334 178.733 27.4124C174.034 28.6483 168.73 26.8312 167.089 21.3595C166.664 19.9386 166.641 18.396 166.433 16.91L166.432 16.9088C166.619 13.6175 166.903 10.3785 168.503 7.45412C170.189 4.37241 172.628 2.14063 176.24 1.59888ZM197.923 3.68569C199.164 1.50357 201.777 1.45368 203.333 2.10847C205.618 3.07009 206.229 5.66136 204.508 7.52124C203.577 8.52746 202.358 9.2748 201.232 10.089C200.265 10.7884 199.202 11.3594 198.265 12.0913C197.243 12.8901 197.139 13.7802 197.849 14.8704C198.63 16.0719 199.71 16.9371 201.058 17.4444C201.534 17.6243 202.026 17.7603 202.511 17.918C205.426 18.8591 206.705 21.3273 205.802 24.2654C204.772 27.6114 200.585 28.5593 197.893 26.0328C196.147 24.3924 195.387 22.2104 194.724 19.9924C194.489 19.2055 194.354 18.3804 194.039 17.6296C193.891 17.2767 193.427 17.0568 193.107 16.7758C192.857 17.1169 192.404 17.4557 192.393 17.8036C192.363 18.9639 192.474 20.1316 192.565 21.2937C192.639 22.2294 192.804 23.1582 192.853 24.0939C192.999 26.8348 191.087 27.7127 189.112 27.7144C186.78 27.7176 185.55 26.4614 185.651 24.1374C185.745 21.9776 186.019 19.826 186.231 17.6731C186.598 13.9792 186.857 10.2832 186.525 6.57043C186.478 6.0596 186.466 5.54475 186.445 5.03049C186.375 3.27706 187.173 2.18648 188.907 1.92079C189.703 1.7991 190.567 1.87118 191.361 2.04259C192.636 2.31865 193.257 3.06342 193.18 4.35063C193.069 6.2205 192.759 8.07671 192.586 9.94486C192.514 10.7145 192.574 11.497 192.574 12.2753C192.706 12.3113 192.839 12.3449 192.971 12.3809V12.3797C193.359 11.8005 193.789 11.245 194.125 10.6384C195.403 8.32791 196.617 5.98076 197.923 3.68569ZM162.307 2.01028C165.099 1.76687 166.078 3.339 165.66 5.71657C165.05 9.18772 164.687 12.6577 164.896 16.1717C165.031 18.4737 165.312 20.769 165.444 23.071C165.493 23.9364 165.378 24.8309 165.206 25.686C165.04 26.5105 164.478 27.1819 163.657 27.3602C162.616 27.5847 161.52 27.7611 160.471 27.6771C159.1 27.5689 158.299 26.5277 158.206 25.1068C158.176 24.6236 158.201 24.1364 158.201 23.6514C158.164 23.648 158.128 23.6436 158.091 23.6402C158.375 21.2405 158.726 18.8455 158.925 16.4389C159.137 13.885 159.237 11.3204 159.323 8.75791C159.364 7.5049 159.234 6.24793 159.236 4.99321C159.237 3.18132 160.261 2.13006 162.052 2.02892C162.137 2.02379 162.223 2.01712 162.307 2.01028ZM98.6357 1.53177C99.3728 1.37749 100.184 1.31106 100.918 1.44477C102.709 1.77393 103.719 3.11958 104.024 5.43194C104.233 7.01224 104.35 8.60444 104.556 10.1847C104.653 10.9354 104.807 11.702 105.729 12.2728V12.2753C105.979 11.665 106.274 11.1309 106.415 10.5601C106.797 8.99181 107.091 7.4009 107.463 5.83091C108.313 2.23323 111.885 1.35064 114.494 1.96429C115.855 2.28485 116.668 3.17259 116.695 4.53707C116.729 6.20487 116.677 7.8915 116.456 9.54217C116.024 12.7835 115.87 16.0079 116.316 19.2578C116.516 20.72 116.664 22.2004 116.699 23.6763C116.757 26.1101 115.658 27.2926 113.232 27.5566C112.809 27.6028 112.371 27.6 111.95 27.5503C110.383 27.3685 109.466 26.3894 109.543 24.6892C109.631 22.7333 109.927 20.7872 110.118 18.8365C110.272 17.251 110.427 15.6639 110.528 14.075C110.557 13.6173 110.397 13.1474 110.325 12.6829C110.214 12.6435 110.102 12.6035 109.991 12.5624C109.672 13.0766 109.229 13.5559 109.056 14.1147C108.629 15.4928 108.333 16.9122 107.97 18.3107C107.756 19.1335 107.635 20.0132 107.244 20.7468C106.889 21.4117 106.32 22.0699 105.679 22.452C104.401 23.2146 103.032 22.7941 102.526 21.3869C102.044 20.0465 101.931 18.5757 101.627 17.1685C101.293 15.6243 100.957 14.0783 100.551 12.5512C100.472 12.2564 100.07 12.0466 99.8165 11.798C99.6143 12.1064 99.2484 12.41 99.2361 12.7252C99.1624 14.6827 99.1264 16.6441 99.159 18.6016C99.1881 20.4512 99.4945 22.3116 99.3591 24.1423C99.1687 26.7374 97.1663 27.6735 94.482 27.3341C92.314 27.0596 91.2975 25.5493 91.5786 23.1978C91.7774 21.5351 92.0516 19.8757 92.379 18.2337C93.0698 14.7813 93.4408 11.3012 93.218 7.78721C92.9797 4.03493 94.3367 2.43 98.6357 1.53177ZM209.217 25.3305C209.901 25.3425 210.333 25.7825 210.321 26.4578C210.309 27.1159 209.825 27.5908 209.179 27.574C208.538 27.5568 208.075 27.0676 208.076 26.4094C208.077 25.7361 208.518 25.3187 209.217 25.3305ZM14.0891 4.36928C17.0853 0.504023 22.0954 -0.996397 26.3739 0.677907C28.8302 1.63953 30.2771 3.66956 30.3201 6.31439C30.3355 7.21948 30.3496 8.15947 30.1336 9.02513C29.6243 11.0699 26.8593 12.3262 24.9035 11.5171C23.8497 11.0818 23.5422 10.2096 23.4804 9.19167C23.4496 8.68086 23.5242 8.16255 23.4916 7.65174C23.4127 6.43467 22.4621 5.77965 21.3513 6.28705C20.7686 6.5545 20.1436 7.03699 19.8574 7.58711C18.5564 10.0811 18.2524 12.7056 19.1763 15.4173C19.8226 17.3114 21.8028 18.7304 24.1391 17.0455C25.0921 16.3581 26.112 15.8199 27.3632 15.902C28.7549 15.9929 29.749 16.9475 29.8229 18.3443C30.0869 23.3255 26.2633 27.3029 21.0679 27.4472C16.0078 27.5877 12.2254 24.9463 10.8762 20.3217C10.7734 19.9686 10.6587 19.6096 10.6227 19.2479C10.5147 18.144 10.4429 17.0349 10.3554 15.9294V15.9281C10.3897 11.6735 11.4544 7.77019 14.0891 4.36928ZM62.2053 0.675421C62.9989 0.653136 63.8053 0.730333 64.5904 0.860611C66.0094 1.09383 67.0601 1.85794 67.2179 3.35757C67.3224 4.35351 67.305 5.4169 67.065 6.38027C66.7254 7.75125 65.599 8.27766 64.2038 7.96743C63.8989 7.90063 63.5924 7.83533 63.2841 7.79591C62.3156 7.67249 61.6671 8.11645 61.5179 9.07981C61.3911 9.89227 61.354 10.7185 61.2631 11.675L61.2656 11.6762C61.5502 14.9314 61.8681 18.3073 62.127 21.6876C62.1921 22.5291 62.1545 23.3999 62.0089 24.2293C61.6969 25.9915 60.1051 27.1525 58.0515 27.2297C56.0822 27.3049 54.5566 26.499 54.2669 24.893C54.0303 23.5817 54.0662 22.1722 54.2445 20.8437C54.6954 17.4977 55.3044 14.1722 55.8255 10.8348C55.9043 10.3327 55.8771 9.8084 55.8566 9.29608C55.8154 8.25386 55.1653 7.74094 54.1488 7.93636C53.7873 8.0049 53.4326 8.11104 53.0762 8.20358C51.3603 8.64755 50.1546 7.86755 49.8683 6.12423C49.397 3.24623 51.0122 1.17384 53.9176 1.011C56.679 0.856735 59.4422 0.75427 62.2053 0.675421ZM34.5036 1.10297C35.2218 1.02758 35.9916 1.12405 36.6961 1.30059C37.9148 1.60745 38.6104 2.49605 38.5281 3.74908C38.4184 5.4185 38.1442 7.07824 37.9539 8.74424C37.666 11.2672 37.3768 13.7918 37.8532 16.3234C38.0006 17.1101 38.2712 17.8251 39.2018 17.9727C40.5268 18.1835 41.5865 17.8421 41.9722 16.8342C42.3904 15.7406 42.802 14.5475 42.79 13.4026C42.7591 10.504 42.4887 7.60714 42.319 4.70858C42.1578 1.9779 43.8099 0.620489 46.5063 1.26331C48.2392 1.67644 49.0139 2.81776 48.966 4.82666C48.8597 9.24907 48.8009 13.675 48.6552 18.0957C48.549 21.3064 47.3188 24.0021 44.6979 25.9768C43.6145 26.7927 42.3764 27.2333 41.0462 27.211C39.603 27.1853 38.1185 27.1604 36.7284 26.8245C33.727 26.0976 31.7229 23.5954 31.3628 20.3677C31.2171 19.0666 31.1781 17.7551 31.0906 16.4489C31.1763 16.4472 31.2622 16.4456 31.3479 16.4439L31.3442 16.4414C31.3442 12.5025 31.332 8.56179 31.3492 4.62283C31.3595 2.31211 32.2032 1.34639 34.5036 1.10297ZM72.433 0.467859C74.8139 0.212517 77.1538 0.321407 79.4815 0.827053C82.3646 1.4528 82.5946 4.39162 81.5696 6.15033C81.0467 7.04513 80.1392 7.42946 79.085 7.26147C77.8253 7.06093 76.569 6.75048 75.3041 6.71957C74.826 6.70758 74.1372 7.24197 73.9021 7.70643C73.6844 8.14011 73.787 8.89788 74.0339 9.36071C74.4521 10.149 75.2967 9.91648 76.0337 9.86159C76.9026 9.79646 77.7873 9.67076 78.6425 9.76837C79.7138 9.89179 80.2445 10.5708 80.3851 11.6712C80.4245 11.9814 80.4673 12.2987 80.4485 12.6071C80.3199 14.6607 79.013 15.6024 77.0056 15.1053C76.7023 15.0299 76.4022 14.9484 76.0971 14.8816C74.5734 14.5493 73.5778 15.5321 73.876 17.0678C74.0252 17.8356 74.7653 18.3563 75.718 18.1852C76.5751 18.0309 77.419 17.7482 78.2349 17.4345C81.1524 16.3066 82.7139 18.141 82.6384 20.6163V20.6175C82.6487 23.3653 80.4294 25.8942 77.4108 26.5337C75.5475 26.9279 73.6715 26.9205 71.8116 26.5262C69.1001 25.9518 66.8526 23.4188 66.8661 20.6387C66.8781 17.9748 67.168 15.309 67.372 12.6469C67.5674 10.0911 67.8472 7.54159 68.022 4.98575C68.2073 2.28962 69.7402 0.757539 72.433 0.467859ZM8.60917 22.7789C7.79837 23.12 7.00866 23.7343 6.89895 24.9788C6.59731 23.8357 5.94837 23.1039 4.94761 22.9169C5.58185 22.2586 6.2518 21.5616 6.78833 21.0028C7.29745 21.4982 7.97664 22.1618 8.60917 22.7789ZM209.646 11.7259C209.941 12.4938 210.245 13.5897 210.766 14.5684C211.373 15.7066 212.649 15.8199 214 16.1593C210.974 16.7952 209.955 18.8074 209.731 21.4627V21.4639C209.713 18.713 208.377 17.0602 205.67 16.3917C208.413 15.5123 209.303 14.3726 209.646 11.7259ZM4.48649 5.44686C4.90475 8.85293 6.08392 10.2506 8.95346 10.7254H8.9547C5.96557 11.3717 4.70957 13.3752 4.54491 16.2513C4.0118 12.6775 3.02892 11.4422 0.197266 10.8286C3.16622 10.2509 4.2328 8.16897 4.48649 5.44686ZM128.414 8.41487C127.837 8.21119 127.321 8.60468 127.161 9.17179C126.726 10.7196 126.31 12.2781 126.02 13.855C125.947 14.2559 126.255 14.9054 126.597 15.1662C127.356 15.7404 128.269 15.6241 129.115 15.2557C129.883 14.9214 129.87 14.1892 129.914 13.507C129.932 13.2518 129.918 12.9933 129.918 12.7364H129.917C129.96 12.7295 130.002 12.7208 130.045 12.714C129.85 11.5998 129.726 10.4644 129.421 9.37935C129.309 8.98345 128.824 8.55883 128.414 8.41487Z" fill="#99BDFF"/>
<path d="M147.233 1.63866C150.246 1.61987 152.973 2.23161 154.933 4.69988C156.22 6.32313 156.688 8.2019 155.963 10.2245C155.392 11.8187 153.462 12.7632 151.84 12.3039C151.078 12.0879 150.658 11.5157 150.502 10.7788C150.385 10.2252 150.333 9.64715 150.326 9.07981C150.318 8.30685 150.128 7.66942 149.358 7.33853C148.542 6.98712 147.765 7.11859 147.145 7.71513C146.745 8.09905 146.384 8.58774 146.18 9.09846C145.035 11.98 144.782 14.9611 145.545 17.9677C146.063 20.0058 147.717 20.9001 149.409 20.2024C149.692 20.0859 149.968 19.9169 150.2 19.7164C150.697 19.2897 151.041 18.7701 150.837 18.0709C150.626 17.3492 150.03 17.2728 149.404 17.2642C147.328 17.2351 147.03 15.54 147.736 14.2303C148.105 13.5449 148.703 13.1995 149.473 13.1789C150.186 13.16 150.901 13.1751 151.615 13.1751L151.618 13.1764C152.274 13.1764 152.931 13.1686 153.589 13.1789C155.078 13.2013 156.211 13.9463 156.425 15.3912C156.976 19.1041 156.596 22.6555 153.718 25.4325C151.053 28.0036 147.809 28.5662 144.372 27.4658C141.081 26.4133 139.165 24.0134 138.651 20.5765C138.005 16.2706 138.191 11.9987 139.344 7.79218C140.191 4.70503 142.996 1.66608 147.233 1.63866ZM124.54 3.37621C127.482 0.513595 131.412 0.959812 133.6 4.42396C134.856 6.41409 135.323 8.67496 135.731 10.9342C136.523 15.3174 137.232 19.7163 137.98 24.1063C138.261 25.7536 137.282 27.1436 135.417 27.5019C134.567 27.6646 133.641 27.6612 132.788 27.5155C131.261 27.2567 130.271 25.9918 130.095 24.2965C130.014 23.5319 129.959 22.7638 129.911 21.9959C129.822 20.5663 129.299 19.9441 128.101 19.8618C126.516 19.7522 125.866 20.2218 125.604 21.7299C125.414 22.8201 125.359 23.9398 125.098 25.0111C124.452 27.6783 120.756 28.7923 118.679 26.9687C117.863 26.2522 117.711 25.2687 117.61 24.2095L117.609 24.2107C117.939 22.6904 118.271 21.1701 118.602 19.6481C119.291 16.4648 119.87 13.2532 120.7 10.1077C121.372 7.56238 122.61 5.2548 124.54 3.37621ZM176.24 1.59888C179.174 1.15835 182.293 1.96564 183.801 4.42024C184.955 6.29726 185.072 8.36182 184.501 10.4308C184.105 11.8672 182.999 12.6858 181.555 12.9738C179.908 13.3028 178.766 12.3672 178.6 10.6222C178.554 10.1406 178.485 9.66008 178.446 9.17676C178.38 8.344 177.988 7.75926 177.153 7.58959C176.379 7.43216 175.648 7.7363 175.321 8.38753C174.793 9.43478 174.311 10.5529 174.087 11.6961C173.773 13.2952 173.888 14.9341 174.485 16.4887C175.302 18.6241 176.867 19.2054 178.907 18.179C179.664 17.7967 180.419 17.3795 181.22 17.1138C183.138 16.4763 184.566 17.5428 184.602 19.5723C184.665 23.3141 182.451 26.4334 178.733 27.4124C174.034 28.6483 168.73 26.8312 167.089 21.3595C166.664 19.9386 166.641 18.396 166.433 16.91L166.432 16.9088C166.619 13.6175 166.903 10.3785 168.503 7.45412C170.189 4.37241 172.628 2.14063 176.24 1.59888ZM197.923 3.68569C199.164 1.50357 201.777 1.45368 203.333 2.10847C205.618 3.07009 206.229 5.66136 204.508 7.52124C203.577 8.52746 202.358 9.2748 201.232 10.089C200.265 10.7884 199.202 11.3594 198.265 12.0913C197.243 12.8901 197.139 13.7802 197.849 14.8704C198.63 16.0719 199.71 16.9371 201.058 17.4444C201.534 17.6243 202.026 17.7603 202.511 17.918C205.426 18.8591 206.705 21.3273 205.802 24.2654C204.772 27.6114 200.585 28.5593 197.893 26.0328C196.147 24.3924 195.387 22.2104 194.724 19.9924C194.489 19.2055 194.354 18.3804 194.039 17.6296C193.891 17.2767 193.427 17.0568 193.107 16.7758C192.857 17.1169 192.404 17.4557 192.393 17.8036C192.363 18.9639 192.474 20.1316 192.565 21.2937C192.639 22.2294 192.804 23.1582 192.853 24.0939C192.999 26.8348 191.087 27.7127 189.112 27.7144C186.78 27.7176 185.55 26.4614 185.651 24.1374C185.745 21.9776 186.019 19.826 186.231 17.6731C186.598 13.9792 186.857 10.2832 186.525 6.57043C186.478 6.0596 186.466 5.54475 186.445 5.03049C186.375 3.27706 187.173 2.18648 188.907 1.92079C189.703 1.7991 190.567 1.87118 191.361 2.04259C192.636 2.31865 193.257 3.06342 193.18 4.35063C193.069 6.2205 192.759 8.07671 192.586 9.94486C192.514 10.7145 192.574 11.497 192.574 12.2753C192.706 12.3113 192.839 12.3449 192.971 12.3809V12.3797C193.359 11.8005 193.789 11.245 194.125 10.6384C195.403 8.32791 196.617 5.98076 197.923 3.68569ZM162.307 2.01028C165.099 1.76687 166.078 3.339 165.66 5.71657C165.05 9.18772 164.687 12.6577 164.896 16.1717C165.031 18.4737 165.312 20.769 165.444 23.071C165.493 23.9364 165.378 24.8309 165.206 25.686C165.04 26.5105 164.478 27.1819 163.657 27.3602C162.616 27.5847 161.52 27.7611 160.471 27.6771C159.1 27.5689 158.299 26.5277 158.206 25.1068C158.176 24.6236 158.201 24.1364 158.201 23.6514C158.164 23.648 158.128 23.6436 158.091 23.6402C158.375 21.2405 158.726 18.8455 158.925 16.4389C159.137 13.885 159.237 11.3204 159.323 8.75791C159.364 7.5049 159.234 6.24793 159.236 4.99321C159.237 3.18132 160.261 2.13006 162.052 2.02892C162.137 2.02379 162.223 2.01712 162.307 2.01028ZM98.6357 1.53177C99.3728 1.37749 100.184 1.31106 100.918 1.44477C102.709 1.77393 103.719 3.11958 104.024 5.43194C104.233 7.01224 104.35 8.60444 104.556 10.1847C104.653 10.9354 104.807 11.702 105.729 12.2728V12.2753C105.979 11.665 106.274 11.1309 106.415 10.5601C106.797 8.99181 107.091 7.4009 107.463 5.83091C108.313 2.23323 111.885 1.35064 114.494 1.96429C115.855 2.28485 116.668 3.17259 116.695 4.53707C116.729 6.20487 116.677 7.8915 116.456 9.54217C116.024 12.7835 115.87 16.0079 116.316 19.2578C116.516 20.72 116.664 22.2004 116.699 23.6763C116.757 26.1101 115.658 27.2926 113.232 27.5566C112.809 27.6028 112.371 27.6 111.95 27.5503C110.383 27.3685 109.466 26.3894 109.543 24.6892C109.631 22.7333 109.927 20.7872 110.118 18.8365C110.272 17.251 110.427 15.6639 110.528 14.075C110.557 13.6173 110.397 13.1474 110.325 12.6829C110.214 12.6435 110.102 12.6035 109.991 12.5624C109.672 13.0766 109.229 13.5559 109.056 14.1147C108.629 15.4928 108.333 16.9122 107.97 18.3107C107.756 19.1335 107.635 20.0132 107.244 20.7468C106.889 21.4117 106.32 22.0699 105.679 22.452C104.401 23.2146 103.032 22.7941 102.526 21.3869C102.044 20.0465 101.931 18.5757 101.627 17.1685C101.293 15.6243 100.957 14.0783 100.551 12.5512C100.472 12.2564 100.07 12.0466 99.8165 11.798C99.6143 12.1064 99.2484 12.41 99.2361 12.7252C99.1624 14.6827 99.1264 16.6441 99.159 18.6016C99.1881 20.4512 99.4945 22.3116 99.3591 24.1423C99.1687 26.7374 97.1663 27.6735 94.482 27.3341C92.314 27.0596 91.2975 25.5493 91.5786 23.1978C91.7774 21.5351 92.0516 19.8757 92.379 18.2337C93.0698 14.7813 93.4408 11.3012 93.218 7.78721C92.9797 4.03493 94.3367 2.43 98.6357 1.53177ZM209.217 25.3305C209.901 25.3425 210.333 25.7825 210.321 26.4578C210.309 27.1159 209.825 27.5908 209.179 27.574C208.538 27.5568 208.075 27.0676 208.076 26.4094C208.077 25.7361 208.518 25.3187 209.217 25.3305ZM14.0891 4.36928C17.0853 0.504023 22.0954 -0.996397 26.3739 0.677907C28.8302 1.63953 30.2771 3.66956 30.3201 6.31439C30.3355 7.21948 30.3496 8.15947 30.1336 9.02513C29.6243 11.0699 26.8593 12.3262 24.9035 11.5171C23.8497 11.0818 23.5422 10.2096 23.4804 9.19167C23.4496 8.68086 23.5242 8.16255 23.4916 7.65174C23.4127 6.43467 22.4621 5.77965 21.3513 6.28705C20.7686 6.5545 20.1436 7.03699 19.8574 7.58711C18.5564 10.0811 18.2524 12.7056 19.1763 15.4173C19.8226 17.3114 21.8028 18.7304 24.1391 17.0455C25.0921 16.3581 26.112 15.8199 27.3632 15.902C28.7549 15.9929 29.749 16.9475 29.8229 18.3443C30.0869 23.3255 26.2633 27.3029 21.0679 27.4472C16.0078 27.5877 12.2254 24.9463 10.8762 20.3217C10.7734 19.9686 10.6587 19.6096 10.6227 19.2479C10.5147 18.144 10.4429 17.0349 10.3554 15.9294V15.9281C10.3897 11.6735 11.4544 7.77019 14.0891 4.36928ZM62.2053 0.675421C62.9989 0.653136 63.8053 0.730333 64.5904 0.860611C66.0094 1.09383 67.0601 1.85794 67.2179 3.35757C67.3224 4.35351 67.305 5.4169 67.065 6.38027C66.7254 7.75125 65.599 8.27766 64.2038 7.96743C63.8989 7.90063 63.5924 7.83533 63.2841 7.79591C62.3156 7.67249 61.6671 8.11645 61.5179 9.07981C61.3911 9.89227 61.354 10.7185 61.2631 11.675L61.2656 11.6762C61.5502 14.9314 61.8681 18.3073 62.127 21.6876C62.1921 22.5291 62.1545 23.3999 62.0089 24.2293C61.6969 25.9915 60.1051 27.1525 58.0515 27.2297C56.0822 27.3049 54.5566 26.499 54.2669 24.893C54.0303 23.5817 54.0662 22.1722 54.2445 20.8437C54.6954 17.4977 55.3044 14.1722 55.8255 10.8348C55.9043 10.3327 55.8771 9.8084 55.8566 9.29608C55.8154 8.25386 55.1653 7.74094 54.1488 7.93636C53.7873 8.0049 53.4326 8.11104 53.0762 8.20358C51.3603 8.64755 50.1546 7.86755 49.8683 6.12423C49.397 3.24623 51.0122 1.17384 53.9176 1.011C56.679 0.856735 59.4422 0.75427 62.2053 0.675421ZM34.5036 1.10297C35.2218 1.02758 35.9916 1.12405 36.6961 1.30059C37.9148 1.60745 38.6104 2.49605 38.5281 3.74908C38.4184 5.4185 38.1442 7.07824 37.9539 8.74424C37.666 11.2672 37.3768 13.7918 37.8532 16.3234C38.0006 17.1101 38.2712 17.8251 39.2018 17.9727C40.5268 18.1835 41.5865 17.8421 41.9722 16.8342C42.3904 15.7406 42.802 14.5475 42.79 13.4026C42.7591 10.504 42.4887 7.60714 42.319 4.70858C42.1578 1.9779 43.8099 0.620489 46.5063 1.26331C48.2392 1.67644 49.0139 2.81776 48.966 4.82666C48.8597 9.24907 48.8009 13.675 48.6552 18.0957C48.549 21.3064 47.3188 24.0021 44.6979 25.9768C43.6145 26.7927 42.3764 27.2333 41.0462 27.211C39.603 27.1853 38.1185 27.1604 36.7284 26.8245C33.727 26.0976 31.7229 23.5954 31.3628 20.3677C31.2171 19.0666 31.1781 17.7551 31.0906 16.4489C31.1763 16.4472 31.2622 16.4456 31.3479 16.4439L31.3442 16.4414C31.3442 12.5025 31.332 8.56179 31.3492 4.62283C31.3595 2.31211 32.2032 1.34639 34.5036 1.10297ZM72.433 0.467859C74.8139 0.212517 77.1538 0.321407 79.4815 0.827053C82.3646 1.4528 82.5946 4.39162 81.5696 6.15033C81.0467 7.04513 80.1392 7.42946 79.085 7.26147C77.8253 7.06093 76.569 6.75048 75.3041 6.71957C74.826 6.70758 74.1372 7.24197 73.9021 7.70643C73.6844 8.14011 73.787 8.89788 74.0339 9.36071C74.4521 10.149 75.2967 9.91648 76.0337 9.86159C76.9026 9.79646 77.7873 9.67076 78.6425 9.76837C79.7138 9.89179 80.2445 10.5708 80.3851 11.6712C80.4245 11.9814 80.4673 12.2987 80.4485 12.6071C80.3199 14.6607 79.013 15.6024 77.0056 15.1053C76.7023 15.0299 76.4022 14.9484 76.0971 14.8816C74.5734 14.5493 73.5778 15.5321 73.876 17.0678C74.0252 17.8356 74.7653 18.3563 75.718 18.1852C76.5751 18.0309 77.419 17.7482 78.2349 17.4345C81.1524 16.3066 82.7139 18.141 82.6384 20.6163V20.6175C82.6487 23.3653 80.4294 25.8942 77.4108 26.5337C75.5475 26.9279 73.6715 26.9205 71.8116 26.5262C69.1001 25.9518 66.8526 23.4188 66.8661 20.6387C66.8781 17.9748 67.168 15.309 67.372 12.6469C67.5674 10.0911 67.8472 7.54159 68.022 4.98575C68.2073 2.28962 69.7402 0.757539 72.433 0.467859ZM8.60917 22.7789C7.79837 23.12 7.00866 23.7343 6.89895 24.9788C6.59731 23.8357 5.94837 23.1039 4.94761 22.9169C5.58185 22.2586 6.2518 21.5616 6.78833 21.0028C7.29745 21.4982 7.97664 22.1618 8.60917 22.7789ZM209.646 11.7259C209.941 12.4938 210.245 13.5897 210.766 14.5684C211.373 15.7066 212.649 15.8199 214 16.1593C210.974 16.7952 209.955 18.8074 209.731 21.4627V21.4639C209.713 18.713 208.377 17.0602 205.67 16.3917C208.413 15.5123 209.303 14.3726 209.646 11.7259ZM4.48649 5.44686C4.90475 8.85293 6.08392 10.2506 8.95346 10.7254H8.9547C5.96557 11.3717 4.70957 13.3752 4.54491 16.2513C4.0118 12.6775 3.02892 11.4422 0.197266 10.8286C3.16622 10.2509 4.2328 8.16897 4.48649 5.44686ZM128.414 8.41487C127.837 8.21119 127.321 8.60468 127.161 9.17179C126.726 10.7196 126.31 12.2781 126.02 13.855C125.947 14.2559 126.255 14.9054 126.597 15.1662C127.356 15.7404 128.269 15.6241 129.115 15.2557C129.883 14.9214 129.87 14.1892 129.914 13.507C129.932 13.2518 129.918 12.9933 129.918 12.7364H129.917C129.96 12.7295 130.002 12.7208 130.045 12.714C129.85 11.5998 129.726 10.4644 129.421 9.37935C129.309 8.98345 128.824 8.55883 128.414 8.41487Z" fill="url(#paint0_linear_139_1497)"/>
<path d="M147.233 1.63866C150.246 1.61987 152.973 2.23161 154.933 4.69988C156.22 6.32313 156.688 8.2019 155.963 10.2245C155.392 11.8187 153.462 12.7632 151.84 12.3039C151.078 12.0879 150.658 11.5157 150.502 10.7788C150.385 10.2252 150.333 9.64715 150.326 9.07981C150.318 8.30685 150.128 7.66942 149.358 7.33853C148.542 6.98712 147.765 7.11859 147.145 7.71513C146.745 8.09905 146.384 8.58774 146.18 9.09846C145.035 11.98 144.782 14.9611 145.545 17.9677C146.063 20.0058 147.717 20.9001 149.409 20.2024C149.692 20.0859 149.968 19.9169 150.2 19.7164C150.697 19.2897 151.041 18.7701 150.837 18.0709C150.626 17.3492 150.03 17.2728 149.404 17.2642C147.328 17.2351 147.03 15.54 147.736 14.2303C148.105 13.5449 148.703 13.1995 149.473 13.1789C150.186 13.16 150.901 13.1751 151.615 13.1751L151.618 13.1764C152.274 13.1764 152.931 13.1686 153.589 13.1789C155.078 13.2013 156.211 13.9463 156.425 15.3912C156.976 19.1041 156.596 22.6555 153.718 25.4325C151.053 28.0036 147.809 28.5662 144.372 27.4658C141.081 26.4133 139.165 24.0134 138.651 20.5765C138.005 16.2706 138.191 11.9987 139.344 7.79218C140.191 4.70503 142.996 1.66608 147.233 1.63866ZM124.54 3.37621C127.482 0.513595 131.412 0.959812 133.6 4.42396C134.856 6.41409 135.323 8.67496 135.731 10.9342C136.523 15.3174 137.232 19.7163 137.98 24.1063C138.261 25.7536 137.282 27.1436 135.417 27.5019C134.567 27.6646 133.641 27.6612 132.788 27.5155C131.261 27.2567 130.271 25.9918 130.095 24.2965C130.014 23.5319 129.959 22.7638 129.911 21.9959C129.822 20.5663 129.299 19.9441 128.101 19.8618C126.516 19.7522 125.866 20.2218 125.604 21.7299C125.414 22.8201 125.359 23.9398 125.098 25.0111C124.452 27.6783 120.756 28.7923 118.679 26.9687C117.863 26.2522 117.711 25.2687 117.61 24.2095L117.609 24.2107C117.939 22.6904 118.271 21.1701 118.602 19.6481C119.291 16.4648 119.87 13.2532 120.7 10.1077C121.372 7.56238 122.61 5.2548 124.54 3.37621ZM176.24 1.59888C179.174 1.15835 182.293 1.96564 183.801 4.42024C184.955 6.29726 185.072 8.36182 184.501 10.4308C184.105 11.8672 182.999 12.6858 181.555 12.9738C179.908 13.3028 178.766 12.3672 178.6 10.6222C178.554 10.1406 178.485 9.66008 178.446 9.17676C178.38 8.344 177.988 7.75926 177.153 7.58959C176.379 7.43216 175.648 7.7363 175.321 8.38753C174.793 9.43478 174.311 10.5529 174.087 11.6961C173.773 13.2952 173.888 14.9341 174.485 16.4887C175.302 18.6241 176.867 19.2054 178.907 18.179C179.664 17.7967 180.419 17.3795 181.22 17.1138C183.138 16.4763 184.566 17.5428 184.602 19.5723C184.665 23.3141 182.451 26.4334 178.733 27.4124C174.034 28.6483 168.73 26.8312 167.089 21.3595C166.664 19.9386 166.641 18.396 166.433 16.91L166.432 16.9088C166.619 13.6175 166.903 10.3785 168.503 7.45412C170.189 4.37241 172.628 2.14063 176.24 1.59888ZM197.923 3.68569C199.164 1.50357 201.777 1.45368 203.333 2.10847C205.618 3.07009 206.229 5.66136 204.508 7.52124C203.577 8.52746 202.358 9.2748 201.232 10.089C200.265 10.7884 199.202 11.3594 198.265 12.0913C197.243 12.8901 197.139 13.7802 197.849 14.8704C198.63 16.0719 199.71 16.9371 201.058 17.4444C201.534 17.6243 202.026 17.7603 202.511 17.918C205.426 18.8591 206.705 21.3273 205.802 24.2654C204.772 27.6114 200.585 28.5593 197.893 26.0328C196.147 24.3924 195.387 22.2104 194.724 19.9924C194.489 19.2055 194.354 18.3804 194.039 17.6296C193.891 17.2767 193.427 17.0568 193.107 16.7758C192.857 17.1169 192.404 17.4557 192.393 17.8036C192.363 18.9639 192.474 20.1316 192.565 21.2937C192.639 22.2294 192.804 23.1582 192.853 24.0939C192.999 26.8348 191.087 27.7127 189.112 27.7144C186.78 27.7176 185.55 26.4614 185.651 24.1374C185.745 21.9776 186.019 19.826 186.231 17.6731C186.598 13.9792 186.857 10.2832 186.525 6.57043C186.478 6.0596 186.466 5.54475 186.445 5.03049C186.375 3.27706 187.173 2.18648 188.907 1.92079C189.703 1.7991 190.567 1.87118 191.361 2.04259C192.636 2.31865 193.257 3.06342 193.18 4.35063C193.069 6.2205 192.759 8.07671 192.586 9.94486C192.514 10.7145 192.574 11.497 192.574 12.2753C192.706 12.3113 192.839 12.3449 192.971 12.3809V12.3797C193.359 11.8005 193.789 11.245 194.125 10.6384C195.403 8.32791 196.617 5.98076 197.923 3.68569ZM162.307 2.01028C165.099 1.76687 166.078 3.339 165.66 5.71657C165.05 9.18772 164.687 12.6577 164.896 16.1717C165.031 18.4737 165.312 20.769 165.444 23.071C165.493 23.9364 165.378 24.8309 165.206 25.686C165.04 26.5105 164.478 27.1819 163.657 27.3602C162.616 27.5847 161.52 27.7611 160.471 27.6771C159.1 27.5689 158.299 26.5277 158.206 25.1068C158.176 24.6236 158.201 24.1364 158.201 23.6514C158.164 23.648 158.128 23.6436 158.091 23.6402C158.375 21.2405 158.726 18.8455 158.925 16.4389C159.137 13.885 159.237 11.3204 159.323 8.75791C159.364 7.5049 159.234 6.24793 159.236 4.99321C159.237 3.18132 160.261 2.13006 162.052 2.02892C162.137 2.02379 162.223 2.01712 162.307 2.01028ZM98.6357 1.53177C99.3728 1.37749 100.184 1.31106 100.918 1.44477C102.709 1.77393 103.719 3.11958 104.024 5.43194C104.233 7.01224 104.35 8.60444 104.556 10.1847C104.653 10.9354 104.807 11.702 105.729 12.2728V12.2753C105.979 11.665 106.274 11.1309 106.415 10.5601C106.797 8.99181 107.091 7.4009 107.463 5.83091C108.313 2.23323 111.885 1.35064 114.494 1.96429C115.855 2.28485 116.668 3.17259 116.695 4.53707C116.729 6.20487 116.677 7.8915 116.456 9.54217C116.024 12.7835 115.87 16.0079 116.316 19.2578C116.516 20.72 116.664 22.2004 116.699 23.6763C116.757 26.1101 115.658 27.2926 113.232 27.5566C112.809 27.6028 112.371 27.6 111.95 27.5503C110.383 27.3685 109.466 26.3894 109.543 24.6892C109.631 22.7333 109.927 20.7872 110.118 18.8365C110.272 17.251 110.427 15.6639 110.528 14.075C110.557 13.6173 110.397 13.1474 110.325 12.6829C110.214 12.6435 110.102 12.6035 109.991 12.5624C109.672 13.0766 109.229 13.5559 109.056 14.1147C108.629 15.4928 108.333 16.9122 107.97 18.3107C107.756 19.1335 107.635 20.0132 107.244 20.7468C106.889 21.4117 106.32 22.0699 105.679 22.452C104.401 23.2146 103.032 22.7941 102.526 21.3869C102.044 20.0465 101.931 18.5757 101.627 17.1685C101.293 15.6243 100.957 14.0783 100.551 12.5512C100.472 12.2564 100.07 12.0466 99.8165 11.798C99.6143 12.1064 99.2484 12.41 99.2361 12.7252C99.1624 14.6827 99.1264 16.6441 99.159 18.6016C99.1881 20.4512 99.4945 22.3116 99.3591 24.1423C99.1687 26.7374 97.1663 27.6735 94.482 27.3341C92.314 27.0596 91.2975 25.5493 91.5786 23.1978C91.7774 21.5351 92.0516 19.8757 92.379 18.2337C93.0698 14.7813 93.4408 11.3012 93.218 7.78721C92.9797 4.03493 94.3367 2.43 98.6357 1.53177ZM209.217 25.3305C209.901 25.3425 210.333 25.7825 210.321 26.4578C210.309 27.1159 209.825 27.5908 209.179 27.574C208.538 27.5568 208.075 27.0676 208.076 26.4094C208.077 25.7361 208.518 25.3187 209.217 25.3305ZM14.0891 4.36928C17.0853 0.504023 22.0954 -0.996397 26.3739 0.677907C28.8302 1.63953 30.2771 3.66956 30.3201 6.31439C30.3355 7.21948 30.3496 8.15947 30.1336 9.02513C29.6243 11.0699 26.8593 12.3262 24.9035 11.5171C23.8497 11.0818 23.5422 10.2096 23.4804 9.19167C23.4496 8.68086 23.5242 8.16255 23.4916 7.65174C23.4127 6.43467 22.4621 5.77965 21.3513 6.28705C20.7686 6.5545 20.1436 7.03699 19.8574 7.58711C18.5564 10.0811 18.2524 12.7056 19.1763 15.4173C19.8226 17.3114 21.8028 18.7304 24.1391 17.0455C25.0921 16.3581 26.112 15.8199 27.3632 15.902C28.7549 15.9929 29.749 16.9475 29.8229 18.3443C30.0869 23.3255 26.2633 27.3029 21.0679 27.4472C16.0078 27.5877 12.2254 24.9463 10.8762 20.3217C10.7734 19.9686 10.6587 19.6096 10.6227 19.2479C10.5147 18.144 10.4429 17.0349 10.3554 15.9294V15.9281C10.3897 11.6735 11.4544 7.77019 14.0891 4.36928ZM62.2053 0.675421C62.9989 0.653136 63.8053 0.730333 64.5904 0.860611C66.0094 1.09383 67.0601 1.85794 67.2179 3.35757C67.3224 4.35351 67.305 5.4169 67.065 6.38027C66.7254 7.75125 65.599 8.27766 64.2038 7.96743C63.8989 7.90063 63.5924 7.83533 63.2841 7.79591C62.3156 7.67249 61.6671 8.11645 61.5179 9.07981C61.3911 9.89227 61.354 10.7185 61.2631 11.675L61.2656 11.6762C61.5502 14.9314 61.8681 18.3073 62.127 21.6876C62.1921 22.5291 62.1545 23.3999 62.0089 24.2293C61.6969 25.9915 60.1051 27.1525 58.0515 27.2297C56.0822 27.3049 54.5566 26.499 54.2669 24.893C54.0303 23.5817 54.0662 22.1722 54.2445 20.8437C54.6954 17.4977 55.3044 14.1722 55.8255 10.8348C55.9043 10.3327 55.8771 9.8084 55.8566 9.29608C55.8154 8.25386 55.1653 7.74094 54.1488 7.93636C53.7873 8.0049 53.4326 8.11104 53.0762 8.20358C51.3603 8.64755 50.1546 7.86755 49.8683 6.12423C49.397 3.24623 51.0122 1.17384 53.9176 1.011C56.679 0.856735 59.4422 0.75427 62.2053 0.675421ZM34.5036 1.10297C35.2218 1.02758 35.9916 1.12405 36.6961 1.30059C37.9148 1.60745 38.6104 2.49605 38.5281 3.74908C38.4184 5.4185 38.1442 7.07824 37.9539 8.74424C37.666 11.2672 37.3768 13.7918 37.8532 16.3234C38.0006 17.1101 38.2712 17.8251 39.2018 17.9727C40.5268 18.1835 41.5865 17.8421 41.9722 16.8342C42.3904 15.7406 42.802 14.5475 42.79 13.4026C42.7591 10.504 42.4887 7.60714 42.319 4.70858C42.1578 1.9779 43.8099 0.620489 46.5063 1.26331C48.2392 1.67644 49.0139 2.81776 48.966 4.82666C48.8597 9.24907 48.8009 13.675 48.6552 18.0957C48.549 21.3064 47.3188 24.0021 44.6979 25.9768C43.6145 26.7927 42.3764 27.2333 41.0462 27.211C39.603 27.1853 38.1185 27.1604 36.7284 26.8245C33.727 26.0976 31.7229 23.5954 31.3628 20.3677C31.2171 19.0666 31.1781 17.7551 31.0906 16.4489C31.1763 16.4472 31.2622 16.4456 31.3479 16.4439L31.3442 16.4414C31.3442 12.5025 31.332 8.56179 31.3492 4.62283C31.3595 2.31211 32.2032 1.34639 34.5036 1.10297ZM72.433 0.467859C74.8139 0.212517 77.1538 0.321407 79.4815 0.827053C82.3646 1.4528 82.5946 4.39162 81.5696 6.15033C81.0467 7.04513 80.1392 7.42946 79.085 7.26147C77.8253 7.06093 76.569 6.75048 75.3041 6.71957C74.826 6.70758 74.1372 7.24197 73.9021 7.70643C73.6844 8.14011 73.787 8.89788 74.0339 9.36071C74.4521 10.149 75.2967 9.91648 76.0337 9.86159C76.9026 9.79646 77.7873 9.67076 78.6425 9.76837C79.7138 9.89179 80.2445 10.5708 80.3851 11.6712C80.4245 11.9814 80.4673 12.2987 80.4485 12.6071C80.3199 14.6607 79.013 15.6024 77.0056 15.1053C76.7023 15.0299 76.4022 14.9484 76.0971 14.8816C74.5734 14.5493 73.5778 15.5321 73.876 17.0678C74.0252 17.8356 74.7653 18.3563 75.718 18.1852C76.5751 18.0309 77.419 17.7482 78.2349 17.4345C81.1524 16.3066 82.7139 18.141 82.6384 20.6163V20.6175C82.6487 23.3653 80.4294 25.8942 77.4108 26.5337C75.5475 26.9279 73.6715 26.9205 71.8116 26.5262C69.1001 25.9518 66.8526 23.4188 66.8661 20.6387C66.8781 17.9748 67.168 15.309 67.372 12.6469C67.5674 10.0911 67.8472 7.54159 68.022 4.98575C68.2073 2.28962 69.7402 0.757539 72.433 0.467859ZM8.60917 22.7789C7.79837 23.12 7.00866 23.7343 6.89895 24.9788C6.59731 23.8357 5.94837 23.1039 4.94761 22.9169C5.58185 22.2586 6.2518 21.5616 6.78833 21.0028C7.29745 21.4982 7.97664 22.1618 8.60917 22.7789ZM209.646 11.7259C209.941 12.4938 210.245 13.5897 210.766 14.5684C211.373 15.7066 212.649 15.8199 214 16.1593C210.974 16.7952 209.955 18.8074 209.731 21.4627V21.4639C209.713 18.713 208.377 17.0602 205.67 16.3917C208.413 15.5123 209.303 14.3726 209.646 11.7259ZM4.48649 5.44686C4.90475 8.85293 6.08392 10.2506 8.95346 10.7254H8.9547C5.96557 11.3717 4.70957 13.3752 4.54491 16.2513C4.0118 12.6775 3.02892 11.4422 0.197266 10.8286C3.16622 10.2509 4.2328 8.16897 4.48649 5.44686ZM128.414 8.41487C127.837 8.21119 127.321 8.60468 127.161 9.17179C126.726 10.7196 126.31 12.2781 126.02 13.855C125.947 14.2559 126.255 14.9054 126.597 15.1662C127.356 15.7404 128.269 15.6241 129.115 15.2557C129.883 14.9214 129.87 14.1892 129.914 13.507C129.932 13.2518 129.918 12.9933 129.918 12.7364H129.917C129.96 12.7295 130.002 12.7208 130.045 12.714C129.85 11.5998 129.726 10.4644 129.421 9.37935C129.309 8.98345 128.824 8.55883 128.414 8.41487Z" fill="url(#paint1_linear_139_1497)" fill-opacity="0.5" style="mix-blend-mode:multiply"/>
<defs>
<linearGradient id="paint0_linear_139_1497" x1="214" y1="27.7266" x2="193.525" y2="-50.5621" gradientUnits="userSpaceOnUse">
<stop stop-color="#D6FFF3"/>
<stop offset="0.3" stop-color="#D6E4FF"/>
<stop offset="0.6" stop-color="#FFE4FC"/>
<stop offset="1" stop-color="#FFF1E7"/>
</linearGradient>
<linearGradient id="paint1_linear_139_1497" x1="0.197266" y1="0.204515" x2="20.6726" y2="78.4932" gradientUnits="userSpaceOnUse">
<stop stop-color="#FFF1E7"/>
<stop offset="0.4" stop-color="#FFE4FC"/>
<stop offset="0.7" stop-color="#D6E4FF"/>
<stop offset="1" stop-color="#D6FFF3"/>
</linearGradient>
</defs>
</svg>
